<svg width="897" height="521" viewBox="0 0 897 521" fill="none" xmlns="http://www.w3.org/2000/svg">
<path d="M209 347C257.049 347 296 385.951 296 434C296 482.049 257.049 521 209 521C160.951 521 122 482.049 122 434C122 385.951 160.951 347 209 347ZM348.934 5.50488C414.212 -3.29846 454.416 -0.982271 517.641 17.5205C556.415 28.8676 597.984 59.5566 629.826 87.3594C645.755 101.268 659.266 114.469 668.794 124.192C673.558 129.054 677.328 133.047 679.906 135.825C681.195 137.214 682.187 138.299 682.856 139.037C683.191 139.406 683.445 139.689 683.616 139.879C683.656 139.924 683.693 139.964 683.723 139.999C683.725 139.999 683.727 139.999 683.728 139.999C683.88 139.998 684.107 139.998 684.402 139.997C684.994 139.996 685.867 139.995 686.989 139.997C689.235 140.002 692.483 140.02 696.49 140.07C704.505 140.172 715.562 140.407 727.727 140.938C752.041 142.001 780.844 144.252 798.631 149.018C816.369 153.771 828.614 158.288 838.092 164.521C847.584 170.763 854.269 178.706 860.933 190.25C867.565 201.736 875.123 223.345 881.484 243.787C887.851 264.247 893.036 283.602 894.916 290.617L894.984 290.871C896.808 297.677 897.071 302.771 895.59 308.256C894.116 313.709 890.925 319.516 885.929 327.76C884.62 329.918 882.466 331.774 879.747 333.377C877.024 334.981 873.705 336.349 870.027 337.516C862.672 339.849 853.824 341.402 845.311 342.435C836.795 343.468 828.593 343.984 822.522 344.242C819.487 344.371 816.983 344.435 815.237 344.468C814.365 344.484 813.681 344.492 813.216 344.496C812.984 344.498 812.805 344.499 812.684 344.5H812.502L812.501 344V344.5H812.111L812.016 344.122L812.501 344C812.068 344.109 812.021 344.12 812.015 344.121C812.015 344.12 812.015 344.119 812.014 344.118C812.014 344.115 812.012 344.109 812.011 344.103C812.007 344.089 812.001 344.066 811.994 344.038C811.979 343.981 811.957 343.896 811.927 343.783C811.866 343.557 811.775 343.221 811.65 342.784C811.401 341.91 811.022 340.628 810.499 339.008C809.453 335.766 807.834 331.164 805.548 325.733C800.974 314.87 793.729 300.701 783.049 287.461C772.369 274.221 758.264 261.922 739.968 254.771C721.677 247.624 699.162 245.607 671.631 252.983C624.843 265.52 606.202 296.601 599.236 324.566C595.75 338.56 595.189 351.775 595.501 361.495C595.657 366.354 596.03 370.337 596.364 373.103C596.531 374.485 596.689 375.564 596.805 376.296C596.862 376.661 596.91 376.94 596.942 377.127C596.958 377.22 596.971 377.291 596.979 377.338C596.984 377.361 596.987 377.379 596.989 377.391C596.99 377.396 596.991 377.401 596.991 377.403C596.991 377.404 596.992 377.406 596.992 377.406C596.991 377.407 596.973 377.41 596.501 377.5L596.992 377.407L597.091 377.927L596.566 377.996L313.566 415.496L313.116 415.556L313.013 415.113L313.501 415L313.013 415.112C313.013 415.112 313.013 415.11 313.013 415.109C313.012 415.106 313.01 415.1 313.009 415.094C313.005 415.08 313 415.059 312.994 415.032C312.981 414.977 312.96 414.893 312.933 414.784C312.879 414.565 312.797 414.24 312.684 413.816C312.46 412.968 312.116 411.725 311.639 410.153C310.686 407.009 309.202 402.546 307.085 397.28C302.849 386.747 296.078 373.011 285.944 360.186C275.811 347.361 262.323 335.457 244.65 328.56C226.983 321.665 205.096 319.758 178.131 326.983C152.465 333.86 135.024 345.418 123.284 358.863C111.542 372.311 105.478 387.674 102.616 402.196C99.7535 416.721 100.095 430.393 101.154 440.438C101.683 445.459 102.392 449.571 102.968 452.426C103.255 453.853 103.51 454.966 103.692 455.721C103.783 456.098 103.856 456.386 103.906 456.579C103.931 456.675 103.951 456.748 103.964 456.796C103.97 456.82 103.975 456.838 103.978 456.85C103.98 456.855 103.981 456.861 103.981 456.863C103.982 456.864 103.982 456.866 103.982 456.866C103.98 456.867 103.944 456.877 103.501 457C103.668 457.45 103.675 457.469 103.675 457.47H103.673C103.671 457.47 103.668 457.472 103.665 457.473C103.658 457.475 103.647 457.48 103.635 457.484C103.608 457.494 103.569 457.508 103.518 457.526C103.416 457.564 103.263 457.619 103.064 457.689C102.666 457.83 102.08 458.034 101.328 458.286C99.8225 458.791 97.6474 459.489 94.9676 460.265C89.6084 461.815 82.2214 463.677 74.118 464.919C66.0172 466.16 57.1806 466.784 48.9285 465.85C40.6794 464.915 32.9709 462.417 27.1727 457.378C11.3013 443.583 -1.86347 430.513 1.50665 409.422C2.52763 403.033 6.71402 395.951 10.5945 390.51C12.5416 387.779 14.4253 385.443 15.8221 383.79C16.5206 382.963 17.0987 382.307 17.5018 381.856C17.6886 381.648 17.8373 381.482 17.9442 381.365C17.905 381.224 17.8509 381.028 17.784 380.78C17.6326 380.22 17.4134 379.393 17.1424 378.329C16.6003 376.2 15.8499 373.115 15.0164 369.292C13.3496 361.647 11.3492 351.044 10.0154 339.216C7.35166 315.593 7.32997 286.954 18.0613 267.261C27.8819 249.239 49.2438 234.056 68.0652 223.398C77.4889 218.062 86.3017 213.847 92.7576 210.966C95.9857 209.525 98.6262 208.418 100.46 207.67C101.376 207.296 102.092 207.012 102.578 206.821C102.796 206.736 102.968 206.669 103.092 206.621C103.098 206.601 103.104 206.58 103.111 206.558C103.171 206.36 103.26 206.066 103.379 205.682C103.616 204.912 103.969 203.778 104.437 202.322C105.373 199.41 106.767 195.205 108.596 190.036C112.255 179.698 117.659 165.497 124.64 150.043C138.593 119.158 158.883 83.1859 184.19 63.1084C236.523 21.5902 282.875 14.4138 348.934 5.50488ZM212.5 396C193.17 396 177.5 411.67 177.5 431C177.5 450.33 193.17 466 212.5 466C231.83 466 247.5 450.33 247.5 431C247.5 411.67 231.83 396 212.5 396ZM104.105 457.309L103.676 457.469L103.501 457L103.982 456.867L104.105 457.309ZM703.001 271C751.049 271 790.001 309.951 790.001 358C790.001 406.049 751.049 445 703.001 445C654.952 445 616.001 406.049 616.001 358C616.001 309.951 654.952 271 703.001 271ZM706.501 320C687.171 320 671.501 335.67 671.501 355C671.501 374.33 687.171 390 706.501 390C725.831 390 741.501 374.33 741.501 355C741.501 335.67 725.831 320 706.501 320ZM494.001 53.5C441.364 37.3331 407.032 33.8898 353.001 44.5C333.217 48.385 313.677 51.9328 294.81 56.7383L303.794 124.831C298.644 127.668 293.646 130.767 288.884 134.151L279.242 61.0723C255.559 68.2927 233.177 78.3127 213.001 94.5C168.894 129.888 152.536 224.297 152.501 224.5L244.752 212.134C243.372 227.183 243.884 242.545 244.905 255.408C246.678 277.746 250.225 295.061 250.298 295.417L252.237 304.864L261.7 306.727C262.043 306.794 280.289 310.376 303.878 312.169C326.969 313.924 357.445 314.172 381.105 306.249L382.243 305.86C406.071 297.546 425.624 280.184 441.361 260.276C457.417 239.965 470.285 216.018 480.271 193.49C482.32 188.869 484.254 184.288 486.078 179.789L630.001 160.5C629.895 160.37 558.553 73.3268 494.001 53.5ZM264.501 187C296.389 96.5318 495.501 103.5 495.501 103.5C495.501 103.5 459.207 264.802 376.501 292.5C343.668 303.495 292.63 297.08 272.786 293.93C272.807 293.896 272.831 293.863 272.851 293.829L272.852 293.827C272.854 293.825 272.856 293.821 272.858 293.817C272.863 293.809 272.872 293.795 272.883 293.777C272.905 293.741 272.939 293.686 272.983 293.612C273.073 293.465 273.208 293.244 273.386 292.954C273.742 292.373 274.273 291.513 274.964 290.406C276.346 288.191 278.369 284.986 280.926 281.039C286.041 273.143 293.286 262.288 301.799 250.459C318.915 226.674 340.84 199.402 360.747 184.064C380.485 168.857 401.479 158.412 417.58 151.766C425.619 148.447 432.412 146.086 437.18 144.56C439.564 143.796 441.44 143.242 442.711 142.881C443.345 142.7 443.829 142.568 444.149 142.482C444.309 142.44 444.428 142.409 444.505 142.389C444.543 142.379 444.571 142.372 444.588 142.367C444.596 142.365 444.602 142.363 444.605 142.362V142.361H444.607C447.015 141.75 448.473 139.303 447.863 136.895C447.253 134.486 444.804 133.028 442.395 133.638L443.335 137.347C442.435 133.796 442.396 133.645 442.393 133.639C442.393 133.639 442.391 133.639 442.389 133.64C442.387 133.64 442.383 133.641 442.38 133.642C442.372 133.644 442.36 133.647 442.347 133.65C442.321 133.657 442.283 133.667 442.235 133.68C442.138 133.705 441.998 133.742 441.817 133.79C441.456 133.887 440.928 134.032 440.249 134.225C438.89 134.611 436.919 135.193 434.436 135.988C429.47 137.579 422.444 140.022 414.146 143.447C397.572 150.289 375.815 161.094 355.255 176.936C334.217 193.145 311.641 221.375 294.494 245.202C285.875 257.179 278.547 268.159 273.373 276.146C270.785 280.14 268.734 283.389 267.328 285.643C266.625 286.769 266.083 287.648 265.716 288.246C265.532 288.545 265.391 288.774 265.297 288.93C265.25 289.007 265.214 289.067 265.189 289.107C265.177 289.127 265.167 289.143 265.161 289.153C265.158 289.158 265.155 289.163 265.153 289.166C265.152 289.167 265.152 289.169 265.151 289.17C265.16 289.176 265.343 289.288 269.001 291.5L265.15 289.171C264.518 290.217 264.362 291.418 264.619 292.521C264.546 292.507 264.506 292.501 264.501 292.5C264.483 292.411 250.814 225.831 264.501 187Z" fill="#4A7F52"/>
</svg>
